<svg xmlns="http://www.w3.org/2000/svg" xmlns:xlink="http://www.w3.org/1999/xlink" viewBox="0 0 77.18 20.47"><defs><style>.cls-1,.cls-2,.cls-3,.cls-4,.cls-5,.cls-6{fill-rule:evenodd;}.cls-1{fill:url(#GradientFill_3);}.cls-2{fill:url(#GradientFill_3-2);}.cls-3{fill:#1b354a;}.cls-4{fill:#479fae;}.cls-5{fill:#fff;}.cls-6{fill:#3b3a39;}</style><linearGradient id="GradientFill_3" x1="6.47" y1="6.06" x2="12.24" y2="12.53" gradientUnits="userSpaceOnUse"><stop offset="0" stop-color="#1b354a"/><stop offset="1" stop-color="#479fae"/></linearGradient><linearGradient id="GradientFill_3-2" x1="4.6" y1="4.53" x2="13.04" y2="14.17" xlink:href="#GradientFill_3"/></defs><title>Ресурс 2</title><g id="Слой_2" data-name="Слой 2"><g id="Слой_1-2" data-name="Слой 1"><path class="cls-1" d="M9.15,17.46a11.67,11.67,0,0,0,2.37-1.91c-1.13.38-2.35.75-3.54,1.09.38.27.77.55,1.17.82Zm2.6-12.27A23.71,23.71,0,0,0,15,6.47,15.91,15.91,0,0,1,13.41,13a13.33,13.33,0,0,1-.69,1.17c-1.8.53-3.85,1.1-5.81,1.57A11.15,11.15,0,0,1,4.9,13a16.07,16.07,0,0,1-1.62-6.5,23.34,23.34,0,0,0,3.51-1.4A14.6,14.6,0,0,0,9.15,3.63l.77.54a.44.44,0,0,0-.16,0,1.24,1.24,0,1,0,0,2.48A1.26,1.26,0,0,0,11,5.45Z"/><path class="cls-2" d="M13.55,3.59c.08,0,1.62-.5,3.22-1,0,0-1.66.32-3.1.63-.34-.16-.67-.29-1-.45A10,10,0,0,1,9.78.67L9.14,0,8.53.67a10.09,10.09,0,0,1-2.9,2.07A21.07,21.07,0,0,1,1.28,4.29l-.67.16v.67a19.89,19.89,0,0,0,2,9A13.82,13.82,0,0,0,4,16.29c.61-.1,1.24-.21,1.91-.35a12.57,12.57,0,0,1-1.8-2.54A17.85,17.85,0,0,1,2.31,5.77,22,22,0,0,0,6.38,4.24,13.61,13.61,0,0,0,9.14,2.42,14.94,14.94,0,0,0,11.85,4.2c.51-.18,1.07-.4,1.7-.61ZM8.75,20.23h0a16.49,16.49,0,0,1-3.48-2.5,8.68,8.68,0,0,1-3.12-.12,13.67,13.67,0,0,0,2.74-.23v0c.4-.08.83-.16,1.25-.26l.73-.2a14,14,0,0,0,2.27,1.64A13.36,13.36,0,0,0,13.23,15c1-.31,1.82-.63,2.51-.86l0,0a14.44,14.44,0,0,1-6.16,6.07l-.42.24-.39-.24ZM15.57,3.88h0A10.48,10.48,0,0,0,17,4.29l.67.16,0,.67a22.36,22.36,0,0,1-1.07,7,1.17,1.17,0,0,0-.53.92l-2,.65a2.84,2.84,0,0,1,.18-.31A17.57,17.57,0,0,0,16,5.77a24.31,24.31,0,0,1-3-1C13.79,4.47,14.66,4.18,15.57,3.88Z"/><path class="cls-3" d="M2.74,14.48s-2,1.38-.93,1.77a2,2,0,0,1-1.32-.41c-.26-.32.2-1,1.76-2.35l0-.07c.12.25.23.51.37.74A1.59,1.59,0,0,0,2.74,14.48Z"/><path class="cls-3" d="M19.3,3.39c.42,0,.77.12.53.63a11.14,11.14,0,0,1-2.19,2.6c0-.47,0-.93,0-1.42A6.39,6.39,0,0,0,19.3,3.39Z"/><path class="cls-4" d="M9.76,5.9a.53.53,0,1,1,0-1.06.53.53,0,0,1,0,1.06Z"/><path class="cls-4" d="M17.32,14a.88.88,0,1,0-.88-.89.88.88,0,0,0,.88.89ZM2.25,13.49h0c-1.56,1.31-2,2-1.76,2.35,1.56,1.56,11-1.58,15.23-3a1.39,1.39,0,0,1,2.67-.3,1.24,1.24,0,0,0-2.31.55c-4.23,1.48-14.41,5-15.93,3-.73-.87,1.39-2.61,1.92-3Z"/><path class="cls-4" d="M17.64,6.62A11.14,11.14,0,0,0,19.83,4c.4-.87-.9-.63-1.34-.53A46.77,46.77,0,0,0,13.57,5l-2.21.74A1.4,1.4,0,0,1,8.67,6,1.25,1.25,0,0,0,11,5.42c1.29-.46,3.12-1.09,5.1-1.7,4-1.41,4.68-.74,4.13.48a13.35,13.35,0,0,1-2.65,3.07Z"/><path class="cls-5" d="M7.36,11.18H6.68V10H5.49v1.2H4.81V8.38h.68V9.5H6.68V8.38h.68v2.8Zm2.47.72v-.72H8V8.38h.68V10.7H9.83V8.38h.67V11.9Zm2.93-.72h-.64v-.27a2.19,2.19,0,0,1-.53-.07.84.84,0,0,1-.4-.27.67.67,0,0,1-.17-.46V9.49A.73.73,0,0,1,11.19,9a1,1,0,0,1,.41-.27,1.72,1.72,0,0,1,.52-.08V8.38h.64v.27a1.7,1.7,0,0,1,.51.08.87.87,0,0,1,.41.27.69.69,0,0,1,.18.49v.62a.68.68,0,0,1-.17.45,1,1,0,0,1-.41.27,1.77,1.77,0,0,1-.52.08v.27Zm.42-1V9.46a.33.33,0,0,0-.11-.25.5.5,0,0,0-.31-.09v1.33a.49.49,0,0,0,.3-.09.26.26,0,0,0,.12-.23Zm-1.48,0a.26.26,0,0,0,.12.23.48.48,0,0,0,.3.08V9.12a.5.5,0,0,0-.31.09.3.3,0,0,0-.11.25Z"/><path class="cls-6" d="M26.2,10h-1V8.24H23.44V10h-1V5.87h1V7.53H25.2V5.87h1V10Zm4.71,0h-1l-.37-1.09H28L27.65,10h-1L28.2,5.87h1.21L30.91,10Zm-1.6-1.76L28.79,6.7h0l-.52,1.56Zm5.62-2.39L33.34,9.2a1.72,1.72,0,0,1-.51.67,1.4,1.4,0,0,1-.82.22,3.79,3.79,0,0,1-.64-.07V9.29a1.54,1.54,0,0,0,.46.09A.58.58,0,0,0,32.41,9l.17-.37L31,5.87h1l1.06,1.87.84-1.87Zm.46,0h1V7.53a.49.49,0,0,0,.14.4,1.06,1.06,0,0,0,.58.11,1.61,1.61,0,0,0,.68-.1.35.35,0,0,0,.2-.35V5.87h1V10H38V8.24a.48.48,0,0,1-.33.38,3.14,3.14,0,0,1-.91.09,1.77,1.77,0,0,1-1-.24.85.85,0,0,1-.31-.74V5.87ZM43.65,10h-1V8.24H40.88V10h-1V5.87h1V7.53h1.77V5.87h1V10Zm4.42-1.71V9c0,.65-.55,1-1.67,1H44.54V5.87h1V7.44h1.14l.36,0a2.08,2.08,0,0,1,.34,0l.28.09a.84.84,0,0,1,.23.16A1,1,0,0,1,48,8a.8.8,0,0,1,0,.32Zm-1,.57V8.49a.27.27,0,0,0-.18-.27,1.74,1.74,0,0,0-.53-.07h-.83V9.31h.81a1,1,0,0,0,.56-.11.36.36,0,0,0,.17-.32ZM49.67,10h-1V5.87h1V10Zm2,0H50.56V5.87h1v2.9l1.88-2.9h1.07V10h-.95V7.08L51.64,10ZM53.4,4.61a.9.9,0,0,1-.26.59.86.86,0,0,1-.62.23.82.82,0,0,1-.89-.82h.52a.49.49,0,0,0,.12.27.3.3,0,0,0,.25.09c.21,0,.33-.12.35-.36Zm6.21,6.47V10H56.84V5.87h1V9.31h1.77V5.87h1v5.21ZM64.73,10H61.5V5.87h3.17v.71H62.5v1h2v.71h-2V9.31h2.23V10Zm4.44,0h-1V8.24H66.4V10h-1V5.87h1V7.53h1.77V5.87h1V10Zm4.12-3.44H72V10H71V6.58H69.74V5.87h3.55v.71Zm3.89.24v.79a.88.88,0,0,1-.41.84,3,3,0,0,1-1.35.22h-.55V10h-1V5.87h1.66a3,3,0,0,1,1.27.19.78.78,0,0,1,.38.76Zm-1,.76V6.91a.25.25,0,0,0-.15-.26,1.47,1.47,0,0,0-.57-.07h-.62V8h.63a1,1,0,0,0,.55-.1A.32.32,0,0,0,76.21,7.58Z"/><path class="cls-6" d="M25.93,17.71H24.6v-.57A3.73,3.73,0,0,1,23.51,17a1.8,1.8,0,0,1-.84-.54,1.4,1.4,0,0,1-.34-1V14.19a1.49,1.49,0,0,1,.35-1,1.89,1.89,0,0,1,.86-.57,3.57,3.57,0,0,1,1.06-.15v-.58h1.33v.58a3.57,3.57,0,0,1,1.06.15,1.81,1.81,0,0,1,.85.57,1.44,1.44,0,0,1,.36,1v1.29a1.32,1.32,0,0,1-.35.93A1.89,1.89,0,0,1,27,17a3.12,3.12,0,0,1-1.07.17v.57Zm.88-2.19V14.14a.64.64,0,0,0-.24-.52,1,1,0,0,0-.64-.2v2.76a1.14,1.14,0,0,0,.63-.17.58.58,0,0,0,.25-.49Zm-3.09,0A.55.55,0,0,0,24,16a1.06,1.06,0,0,0,.63.17V13.42a1,1,0,0,0-.63.2.63.63,0,0,0-.25.52v1.38Zm10.85-1.95v2.54a1.38,1.38,0,0,1-.26.84,1.56,1.56,0,0,1-.7.53,4.12,4.12,0,0,1-.88.24,5.46,5.46,0,0,1-.93.08,5.94,5.94,0,0,1-.87-.06,4.62,4.62,0,0,1-.87-.22,1.59,1.59,0,0,1-.74-.52,1.45,1.45,0,0,1-.27-.89V13.57a1.57,1.57,0,0,1,.2-.79,1.54,1.54,0,0,1,.49-.52,2.25,2.25,0,0,1,.68-.29,3.77,3.77,0,0,1,.72-.14q.32,0,.66,0c.24,0,.46,0,.68,0a3.77,3.77,0,0,1,.72.14,2.43,2.43,0,0,1,.69.29,1.48,1.48,0,0,1,.48.51,1.58,1.58,0,0,1,.2.8Zm-1.4,2.54V13.56a.6.6,0,0,0-.34-.59,2.29,2.29,0,0,0-1-.17,2.43,2.43,0,0,0-1,.16.6.6,0,0,0-.34.6v2.55a.55.55,0,0,0,.45.58,2.45,2.45,0,0,0,.42.09l.5,0,.5,0a2.17,2.17,0,0,0,.41-.09.59.59,0,0,0,.33-.21.62.62,0,0,0,.11-.37Zm7.06-2.88v1.1a1.2,1.2,0,0,1-.58,1.17,4.14,4.14,0,0,1-1.89.32H37v1.89h-1.4V11.89h2.33a4.17,4.17,0,0,1,1.77.27,1.09,1.09,0,0,1,.54,1.07Zm-1.36,1v-.93a.37.37,0,0,0-.21-.37,2.36,2.36,0,0,0-.8-.09H37v2h.89a1.75,1.75,0,0,0,.77-.13.48.48,0,0,0,.22-.45Zm6.76,3.43H41.11V11.89h4.43v1h-3v1.33h2.74v1H42.51v1.49h3.12v1Zm6.11,0h-1.4V15.22H47.87v2.49h-1.4V11.89h1.4v2.33h2.47V11.89h1.4v5.82Zm5.34-2.25v1c0,.92-.77,1.38-2.33,1.38a13.32,13.32,0,0,1-2.13-.17V16.57a10.94,10.94,0,0,0,2,.23,2,2,0,0,0,.84-.13q.27-.14.27-.33v-.68a.34.34,0,0,0-.25-.34,2.62,2.62,0,0,0-.84-.1H53.37v-1H54.6a1.61,1.61,0,0,0,.68-.1.33.33,0,0,0,.2-.33v-.55a.36.36,0,0,0-.22-.35,2.22,2.22,0,0,0-.83-.1l-1.7.1v-1c.82-.05,1.43-.08,1.85-.08a4.4,4.4,0,0,1,1.68.25.89.89,0,0,1,.59.89v1a.64.64,0,0,1-.17.45.91.91,0,0,1-.41.24q.81.3.81.87Zm2.6,2.25H58.17V11.89h1.34V16l2.63-4.06h1.51v5.82H62.31V13.58l-2.63,4.13Zm5.12,0V11.89h1.37v2.32a1.29,1.29,0,0,0,.47-.06.58.58,0,0,0,.27-.27l.62-1a2.16,2.16,0,0,1,.69-.79,2.17,2.17,0,0,1,1-.18h.64v1h-.37A1.62,1.62,0,0,0,69,13a1.22,1.22,0,0,0-.34.4l-.35.58a2.1,2.1,0,0,1-.31.39,1.48,1.48,0,0,1-.35.21,1.43,1.43,0,0,1,.58.38,4.8,4.8,0,0,1,.74.9l1.27,1.9H68.58L67.47,16a2.11,2.11,0,0,0-.6-.68,1.47,1.47,0,0,0-.7-.14v2.53Zm11.21,0-2.1-5.82h-1.7l-2.15,5.82h1.38L72,16.17h2.13l.51,1.54Zm-2.24-2.47h-1.5L73,13.06h0Z"/></g></g></svg>