<?xml version="1.0" encoding="UTF-8" standalone="no"?>
<svg
   class="r-mb-20"
   xml:space="preserve"
   height="44"
   version="1.1"
   style="shape-rendering:geometricPrecision; text-rendering:geometricPrecision; image-rendering:optimizeQuality; fill-rule:evenodd; clip-rule:evenodd"
   viewBox="0 0 46479.8 20000"
   id="svg10"
   sodipodi:docname="logo-new.svg"
   inkscape:version="1.1 (c68e22c387, 2021-05-23)"
   xmlns:inkscape="http://www.inkscape.org/namespaces/inkscape"
   xmlns:sodipodi="http://sodipodi.sourceforge.net/DTD/sodipodi-0.dtd"
   xmlns="http://www.w3.org/2000/svg"
   xmlns:svg="http://www.w3.org/2000/svg"><sodipodi:namedview
   id="namedview12"
   pagecolor="#ffffff"
   bordercolor="#666666"
   borderopacity="1.0"
   inkscape:pageshadow="2"
   inkscape:pageopacity="0.0"
   inkscape:pagecheckerboard="0"
   showgrid="false"
   inkscape:zoom="5.12"
   inkscape:cx="23269.336"
   inkscape:cy="46.582031"
   inkscape:window-width="1920"
   inkscape:window-height="1027"
   inkscape:window-x="1912"
   inkscape:window-y="-8"
   inkscape:window-maximized="1"
   inkscape:current-layer="Layer_x0020_1" />
 <defs
   id="defs4">
  <style
   type="text/css"
   id="style2">
   <![CDATA[
    .fil0 {fill:#2B2A29;fill-rule:nonzero}
   ]]>
  </style>
 <clipPath
   clipPathUnits="userSpaceOnUse"
   id="clipPath845"><path
     d="m 263.5611,370.4511 58.2883,-3e-4 h 38.0766 l -10.5826,17.7792 -75.5175,2e-4 z"
     clip-rule="evenodd"
     id="path843" /></clipPath><linearGradient
   x1="298.10999"
   y1="404.26001"
   x2="333.64999"
   y2="337.70999"
   gradientUnits="userSpaceOnUse"
   spreadMethod="pad"
   id="linearGradient851"><stop
     style="stop-opacity:1;stop-color:#06a6d6"
     offset="0"
     id="stop847" /><stop
     style="stop-opacity:1;stop-color:#90d1db"
     offset="1"
     id="stop849" /></linearGradient><clipPath
   clipPathUnits="userSpaceOnUse"
   id="clipPath861"><path
     d="m 263.5611,370.4511 58.2883,-3e-4 h 38.0766 l -10.5826,17.7792 -75.5175,2e-4 z"
     clip-rule="evenodd"
     id="path859" /></clipPath><clipPath
   clipPathUnits="userSpaceOnUse"
   id="clipPath871"><path
     d="m 311.0451,343.074 h 90.3195 v 79.2397 h -90.3195 z"
     clip-rule="evenodd"
     id="path869" /></clipPath><clipPath
   clipPathUnits="userSpaceOnUse"
   id="clipPath881"><path
     d="M 321.8494,471.4089 331.9551,453.9053 321.8494,435.8509 294.3553,388.23 h -20.5294 l 18.879,32.6999 z"
     clip-rule="evenodd"
     id="path879" /></clipPath><linearGradient
   x1="297.5"
   y1="472.54999"
   x2="313.31"
   y2="393.70999"
   gradientUnits="userSpaceOnUse"
   spreadMethod="pad"
   id="linearGradient887"><stop
     style="stop-opacity:1;stop-color:#06a6d6"
     offset="0"
     id="stop883" /><stop
     style="stop-opacity:1;stop-color:#90d1db"
     offset="1"
     id="stop885" /></linearGradient><clipPath
   clipPathUnits="userSpaceOnUse"
   id="clipPath905"><path
     d="m 380.1376,370.4508 -29.1441,50.4791 -19.0384,32.9754 -10.1057,-18.0544 37.7586,-65.4001 z"
     clip-rule="evenodd"
     id="path903" /></clipPath><linearGradient
   x1="325.66"
   y1="430.5"
   x2="381.37"
   y2="400.48999"
   gradientUnits="userSpaceOnUse"
   spreadMethod="pad"
   id="linearGradient911"><stop
     style="stop-opacity:1;stop-color:#06a6d6"
     offset="0"
     id="stop907" /><stop
     style="stop-opacity:1;stop-color:#90d1db"
     offset="1"
     id="stop909" /></linearGradient><clipPath
   clipPathUnits="userSpaceOnUse"
   id="clipPath921"><path
     d="m 380.1376,370.4508 -29.1441,50.4791 -19.0384,32.9754 -10.1057,-18.0544 37.7586,-65.4001 z"
     clip-rule="evenodd"
     id="path919" /></clipPath><clipPath
   clipPathUnits="userSpaceOnUse"
   id="clipPath931"><path
     d="m 299.749,405.9621 h 46.9278 v 77.1982 H 299.749 Z"
     clip-rule="evenodd"
     id="path929" /></clipPath></defs>
 <g
   id="Layer_x0020_1"
   inkscape:label="Layer 1">
  <metadata
   id="CorelCorpID_0Corel-Layer" />
  
 <g
   id="g837"
   transform="matrix(198.10198,0,0,-198.10198,-35682.691,93387.037)"><g
     id="g839"><g
       id="g841"
       clip-path="url(#clipPath845)"><path
         d="m 263.5611,370.4511 58.2883,-3e-4 h 38.0766 l -10.5826,17.7792 -75.5175,2e-4 z"
         style="fill:url(#linearGradient851);fill-rule:evenodd;stroke:none"
         id="path853" /></g></g><g
     id="g855"><g
       id="g857"
       clip-path="url(#clipPath861)"><g
         id="g863"><g
           id="g865"><g
             id="g867"
             clip-path="url(#clipPath871)"><g
               id="g873"
               transform="matrix(-12.45404,-21.57104,41.55055,-23.98922,323.4992,403.244)" /></g></g></g></g></g><g
     id="g875"><g
       id="g877"
       clip-path="url(#clipPath881)"><path
         d="M 321.8494,471.4089 331.9551,453.9053 321.8494,435.8509 294.3553,388.23 h -20.5294 l 18.879,32.6999 z"
         style="fill:url(#linearGradient887);fill-rule:evenodd;stroke:none"
         id="path889" /></g></g><g
     id="g891"><path
       d="m 234.5148,432.7089 h -5.0307 l -4.4541,6.4815 c -0.4183,0.6125 -0.8149,1.1228 -1.1885,1.531 -0.3691,0.4033 -0.7195,0.7103 -1.0477,0.9206 -0.3215,0.209 -0.6661,0.3654 -1.0349,0.4697 -0.3694,0.1044 -0.7665,0.1571 -1.19,0.1571 h -1.9245 v -9.5599 h -4.7945 v 23.9239 h 8.8504 c 1.413,0 2.6702,-0.1395 3.77,-0.4181 1.1135,-0.2818 2.0665,-0.7067 2.8568,-1.2731 0.8005,-0.574 1.4029,-1.271 1.8059,-2.0911 0.4009,-0.8149 0.6013,-1.7464 0.6013,-2.7921 0,-0.8184 -0.1386,-1.5817 -0.4156,-2.2884 -0.2767,-0.7075 -0.6919,-1.3558 -1.2424,-1.942 -0.5494,-0.582 -1.2067,-1.0761 -1.9704,-1.4809 -0.5394,-0.2854 -1.1324,-0.5275 -1.7779,-0.7248 0.4034,-0.2242 0.8178,-0.5303 1.243,-0.9178 0.6863,-0.6256 1.4083,-1.4698 2.1651,-2.5319 l 5.4034,-7.4637 z m 21.8803,20.1915 h -7.3803 v -20.1915 h -4.8064 v 20.1915 h -7.6819 v 3.7324 h 20.1878 v -3.7324 z m 27.8963,-19.8723 v 15.0344 c 0,0.6494 0.0185,1.3731 0.0556,2.1702 -2.4299,-5.8504 -5.0888,-11.7062 -7.6207,-17.5238 h -2.906 l -7.5807,17.2214 -0.1063,0.2718 c 0.0229,-0.8076 0.0348,-1.6563 0.0348,-2.5449 v -14.9483 h -4.1777 v 23.9239 h 5.8439 l 6.7255,-15.5713 c 0.2608,-0.6066 0.4811,-1.1653 0.6565,-1.6738 l 0.1704,-0.5216 0.1516,0.4198 c 0.1934,0.5281 0.4207,1.1285 0.6818,1.8091 2.2093,5.1916 4.5714,10.3682 6.8453,15.5378 h 5.6367 v -23.9239 h -4.4107 z m -65.647,19.9905 v -7.1206 h 3.3648 c 0.7313,0 1.3884,0.0927 1.9686,0.2758 0.5749,0.1814 1.0758,0.4518 1.4993,0.8082 0.4218,0.3546 0.7384,0.7577 0.9479,1.2064 0.2086,0.4467 0.3135,0.9462 0.3135,1.4961 0,1.1109 -0.3716,1.9392 -1.1143,2.4837 -0.7733,0.5669 -1.9568,0.8504 -3.5501,0.8504 z"
       style="fill:#000000;fill-opacity:1;fill-rule:nonzero;stroke:none"
       id="path893" /><path
       d="m 263.7686,385.2272 h -5.0306 l -4.4541,6.4814 c -0.4181,0.612 -0.815,1.1225 -1.1883,1.5307 -0.3691,0.4031 -0.7194,0.7107 -1.048,0.921 -0.3214,0.2089 -0.6664,0.3654 -1.0349,0.4697 -0.3696,0.1043 -0.7668,0.1571 -1.1903,0.1571 h -1.9241 v -9.5599 h -4.7948 v 23.9239 h 8.8506 c 1.4125,0 2.6705,-0.1395 3.7698,-0.4182 1.1137,-0.282 2.067,-0.7066 2.8573,-1.2733 0.8008,-0.574 1.4031,-1.2716 1.8054,-2.0908 0.4011,-0.8153 0.6015,-1.7464 0.6015,-2.7921 0,-0.8184 -0.1389,-1.5821 -0.4156,-2.2887 -0.2769,-0.707 -0.6913,-1.355 -1.2427,-1.942 -0.5493,-0.5817 -1.2064,-1.0758 -1.9698,-1.4806 -0.5394,-0.2857 -1.1327,-0.5275 -1.7784,-0.7248 0.4033,-0.2245 0.8181,-0.5304 1.2433,-0.9179 0.6859,-0.6256 1.4082,-1.4694 2.1651,-2.5316 l 5.4036,-7.4639 z m 3.9061,11.6788 c 0,1.8124 0.256,3.4562 0.7665,4.9305 0.5122,1.4794 1.2816,2.7854 2.3057,3.9167 1.0307,1.1341 2.24,1.9845 3.6287,2.5511 1.3824,0.5641 2.9412,0.8468 4.6749,0.8468 1.6282,0 3.0979,-0.2756 4.4098,-0.8252 1.3164,-0.5516 2.471,-1.3788 3.4631,-2.4786 0.9882,-1.0979 1.73,-2.3525 2.2241,-3.7613 0.4921,-1.4032 0.7378,-2.9566 0.7378,-4.6585 0,-1.8022 -0.2508,-3.4398 -0.7526,-4.9073 -0.5034,-1.472 -1.26,-2.7726 -2.2688,-3.8993 -1.0106,-1.1311 -2.2008,-1.9806 -3.5691,-2.547 -1.3621,-0.5641 -2.8985,-0.8467 -4.6069,-0.8467 -1.6308,0 -3.1119,0.273 -4.4402,0.8181 -1.3317,0.5462 -2.5061,1.3657 -3.5232,2.4565 -1.0173,1.0874 -1.7804,2.334 -2.2889,3.7383 -0.5069,1.4006 -0.7609,2.9568 -0.7609,4.6659 z m 4.3076,0.248 c 0,-1.2104 0.1536,-2.3111 0.4603,-3.301 0.3053,-0.9844 0.7625,-1.8629 1.3703,-2.6331 0.6057,-0.7628 1.3161,-1.3356 2.1288,-1.7155 0.8135,-0.3801 1.7396,-0.5706 2.7763,-0.5706 1.0921,0 2.0588,0.1823 2.8981,0.5454 0.8331,0.3605 1.5497,0.9039 2.1487,1.6276 0.604,0.7317 1.0576,1.5937 1.3603,2.5838 0.305,0.9992 0.4578,2.1342 0.4578,3.4039 0,1.3002 -0.148,2.461 -0.4428,3.4809 -0.2934,1.0134 -0.7319,1.8933 -1.3147,2.6382 -0.5768,0.7333 -1.2747,1.2835 -2.0917,1.6486 -0.8234,0.3677 -1.7762,0.5522 -2.857,0.5522 -2.0942,0 -3.7602,-0.765 -5.006,-2.2946 -0.6279,-0.7733 -1.0998,-1.6555 -1.4145,-2.6445 -0.3155,-0.9929 -0.4739,-2.1004 -0.4739,-3.3213 z m 53.8721,-3.4019 v -8.5226 h -4.5904 v 23.923 h 8.0212 c 1.4652,0 2.7669,-0.1568 3.9013,-0.4694 1.1461,-0.3164 2.1206,-0.7926 2.9206,-1.427 0.8098,-0.6412 1.417,-1.4281 1.8209,-2.3596 0.4011,-0.9255 0.6013,-1.989 0.6013,-3.1901 0,-1.2155 -0.2396,-2.3147 -0.7186,-3.297 -0.4791,-0.9819 -1.196,-1.843 -2.1498,-2.5837 -0.9474,-0.7322 -2.0061,-1.2714 -3.1757,-1.6166 -1.1605,-0.343 -2.431,-0.4944 -3.8117,-0.4558 l -2.8191,-0.001 z m 0,11.74 v -8.0946 h 2.5042 c 1.8303,0 3.192,0.3503 4.0847,1.0511 0.8708,0.6817 1.3053,1.7186 1.3053,3.109 0,1.3153 -0.415,2.2952 -1.2441,2.939 -0.8561,0.6636 -2.1608,0.9955 -3.9155,0.9955 z m -10.453,-10.0678 c 0,-3.3778 -0.8243,-5.9205 -2.473,-7.628 -1.6528,-1.7113 -4.1144,-2.5668 -7.3853,-2.5668 -3.1377,0 -5.5007,0.8291 -7.0872,2.486 -1.5835,1.6537 -2.376,4.1145 -2.376,7.3811 v 14.0559 h 4.3846 v -13.9649 c 0,-2.0928 0.447,-3.6539 1.3408,-4.6803 0.8824,-1.0134 2.2229,-1.5211 4.0207,-1.5211 1.7424,0 3.0407,0.4884 3.8945,1.465 0.8643,0.9887 1.296,2.4936 1.296,4.5142 v 14.1871 h 4.3849 z m -79.0591,-8.2573 c -1.2994,-0.6469 -2.698,-1.1328 -4.195,-1.4559 -1.4936,-0.3223 -3.0853,-0.4839 -4.7747,-0.4839 -1.9417,0 -3.6941,0.2617 -5.2552,0.7844 -1.5672,0.5249 -2.9406,1.3144 -4.1167,2.366 -1.1809,1.0562 -2.0679,2.2958 -2.6589,3.7171 -0.589,1.4162 -0.8844,3.0107 -0.8844,4.7815 0,1.7932 0.3274,3.4285 0.9796,4.9031 0.6546,1.4785 1.6345,2.793 2.9373,3.941 1.298,1.144 2.785,2.0027 4.4586,2.5753 1.6671,0.5703 3.517,0.8557 5.5483,0.8557 1.3855,0 2.6781,-0.0952 3.8761,-0.2843 1.2021,-0.1902 2.3011,-0.4753 3.2955,-0.8538 l 0.2061,-0.0785 v -4.3361 l -0.4714,0.2573 c -0.9777,0.5332 -2.0631,0.9341 -3.2508,1.2011 -1.1931,0.2681 -2.4953,0.4025 -3.9036,0.4025 -1.3133,0 -2.5049,-0.1936 -3.5719,-0.58 -1.0621,-0.3849 -2.0061,-0.9626 -2.8301,-1.7322 -0.8252,-0.7702 -1.4437,-1.6577 -1.8542,-2.6626 -0.4121,-1.0086 -0.6179,-2.143 -0.6179,-3.4047 0,-1.3 0.1902,-2.4537 0.5703,-3.4597 0.377,-0.9972 0.9425,-1.8541 1.6957,-2.5704 0.756,-0.7186 1.6472,-1.2581 2.6714,-1.6169 1.0332,-0.3623 2.2076,-0.544 3.52,-0.544 0.8745,0 1.6759,0.0714 2.4047,0.2129 0.6494,0.1261 1.2435,0.3087 1.7827,0.5457 v 5.1222 h -5.4304 v 3.6025 h 10.046 v -11.1172 z m 11.556,18.3696 v -7.1203 h 3.3647 c 0.731,0 1.3881,0.0926 1.9684,0.2758 0.5748,0.1811 1.0757,0.4515 1.4992,0.8081 0.4221,0.3546 0.739,0.7577 0.9482,1.2067 0.2086,0.4462 0.3135,0.9457 0.3135,1.4956 0,1.1112 -0.3716,1.9395 -1.1143,2.484 -0.7733,0.5666 -1.957,0.8501 -3.5501,0.8501 z"
       style="fill:#000000;fill-opacity:1;fill-rule:nonzero;stroke:none"
       id="path895" /></g><path
     d="m 214.1691,423.1636 c 54.2418,0.1595 108.5068,0.0116 162.7512,0.0116 1.0831,0 2.1659,0 4.1011,0 -5.1862,-10.6521 -10.4439,-20.5308 -15.6092,-30.5096 -1.4703,0.005 -2.7434,-0.0329 -4.3968,0 4.3752,8.6845 8.8288,17.4651 13.1986,26.1408 -1.3583,0 -2.2512,-0.005 -3.0154,-0.005 -51.6861,0.009 -103.3714,0.009 -155.0583,0.002 -0.6571,0 -1.3127,0.004 -1.9712,-0.007 0,1.4681 0,2.9007 0,4.3671"
     style="fill:#000000;fill-opacity:1;fill-rule:evenodd;stroke:none"
     id="path897" /><g
     id="g899"><g
       id="g901"
       clip-path="url(#clipPath905)"><path
         d="m 380.1376,370.4508 -29.1441,50.4791 -19.0384,32.9754 -10.1057,-18.0544 37.7586,-65.4001 z"
         style="fill:url(#linearGradient911);fill-rule:evenodd;stroke:none"
         id="path913" /></g></g><g
     id="g915"><g
       id="g917"
       clip-path="url(#clipPath921)"><g
         id="g923"><g
           id="g925"><g
             id="g927"
             clip-path="url(#clipPath931)"><g
               id="g933"
               transform="matrix(24.90809,0,0,47.97844,321.7689,405.9622)" /></g></g></g></g></g></g></g>
</svg>
